<svg xmlns="http://www.w3.org/2000/svg" viewBox="0 0 200 200" role="img" aria-label="Avatar person">
  <defs>
    <linearGradient id="shirt" x1="0" y1="0" x2="1" y2="1">
      <stop offset="0%" stop-color="#6f7f9f"/>
      <stop offset="100%" stop-color="#4e5e7f"/>
    </linearGradient>
    <linearGradient id="skin" x1="0" y1="0" x2="0" y2="1">
      <stop offset="0%" stop-color="#f2c8a0"/>
      <stop offset="100%" stop-color="#e1ac82"/>
    </linearGradient>
    <linearGradient id="hair" x1="0" y1="0" x2="0" y2="1">
      <stop offset="0%" stop-color="#3f2f2b"/>
      <stop offset="100%" stop-color="#2e2320"/>
    </linearGradient>
  </defs>
  <circle cx="100" cy="74" r="30" fill="url(#skin)"/>
  <path d="M72 70c0-19 13-33 28-33s28 14 28 33c-6-4-13-6-20-6-15 0-26 4-36 12z" fill="url(#hair)"/>
  <path d="M38 182c0-36 28-58 62-58s62 22 62 58" fill="url(#shirt)"/>
  <path d="M66 130c8 8 18 12 34 12s26-4 34-12v16c-9 8-21 13-34 13s-25-5-34-13z" fill="#f7f9ff" opacity="0.7"/>
</svg>
